<?xml version="1.0" encoding="UTF-8" standalone="no"?>
<svg
   viewBox="0 0 1014.1175 1012.7668"
   version="1.1"
   id="svg10"
   sodipodi:docname="icon.svg"
   width="1014.1175"
   height="1012.7668"
   inkscape:version="1.1.2 (b8e25be8, 2022-02-05)"
   xmlns:inkscape="http://www.inkscape.org/namespaces/inkscape"
   xmlns:sodipodi="http://sodipodi.sourceforge.net/DTD/sodipodi-0.dtd"
   xmlns="http://www.w3.org/2000/svg"
   xmlns:svg="http://www.w3.org/2000/svg">
  <defs
     id="defs14" />
  <sodipodi:namedview
     id="namedview12"
     pagecolor="#ffffff"
     bordercolor="#666666"
     borderopacity="1.0"
     inkscape:pageshadow="2"
     inkscape:pageopacity="0.0"
     inkscape:pagecheckerboard="0"
     showgrid="false"
     inkscape:zoom="0.35107422"
     inkscape:cx="1015.4548"
     inkscape:cy="1046.7872"
     inkscape:window-width="1312"
     inkscape:window-height="969"
     inkscape:window-x="0"
     inkscape:window-y="0"
     inkscape:window-maximized="0"
     inkscape:current-layer="svg10" />
  <path
     d="M 998.83698,394.21906 940.5176,451.25549 780.79919,292.82707 839.12361,235.78764 c 17.72982,-17.73482 45.62454,-20.2798 60.82439,-5.07695 l 105.214,102.68097 c 13.9598,15.18785 11.4099,43.07757 -6.32502,60.8274 v 0 0 z M 752.93547,319.4298 913.91386,476.59823 531.11369,854.32846 c -1.26999,1.26498 -6.36494,6.34493 -13.94986,7.60492 -1.25499,0 -1.25499,0 -2.54498,1.26499 l -200.26799,62.12937 c -5.07195,1.26999 -11.41189,1.26999 -15.22185,-2.54497 -3.79296,-3.78996 -5.06295,-8.86991 -2.54998,-15.21985 L 359.9734,711.08589 c 0,-1.24499 0,-1.24499 1.27199,-2.52998 1.25798,-6.35493 6.33693,-13.93986 8.84491,-15.21985 l 73.52926,-67.17932 H 200.282 c -10.1519,0 -19.02181,-11.43489 -19.02181,-20.2698 0,-10.1699 8.86991,-21.55979 19.02181,-21.55979 h 281.38918 z m -271.26429,522.22378 -98.88401,-97.58902 -26.62173,82.39917 41.83158,41.82458 z m 266.18434,-460.1094 c -5.07495,-5.05995 -15.22484,-5.05995 -20.27979,0 l -300.434,294.07106 c -6.33494,5.05995 -6.33494,15.20485 0,20.2748 5.07695,5.06995 15.22685,5.06995 20.2868,0 L 746.57454,401.82598 c 6.36093,-5.07395 6.36093,-13.94686 1.28098,-20.2818 v 0 0 z M 79.844202,955.74244 c -10.126899,0 -20.261797,-3.80996 -20.261797,-13.93986 l -1e-6,-801.08999 C 58.317417,121.69578 70.99429,125.51074 84.922151,125.51074 h 69.714309 v 26.61674 c 0,10.1469 11.39988,19.01681 22.81477,19.01681 10.15189,0 22.83177,-8.86991 22.83177,-19.01681 v -26.61674 h 103.93596 v 26.61674 c 0,10.1469 11.39689,19.01681 22.81477,19.01681 10.1519,0 22.83177,-8.86991 22.83177,-19.01681 v -26.61674 h 95.06405 v 26.61674 c 0,10.1469 11.39989,19.01681 22.81978,19.01681 10.16189,0 22.82677,-8.86991 22.82677,-19.01681 v -26.61674 h 95.07105 v 26.61674 c 0,10.1469 11.41488,19.01681 22.82477,19.01681 10.1449,0 22.82477,-8.86991 22.82477,-19.01681 v -26.61674 h 79.8392 c 10.1499,0 16.48984,5.05495 16.48984,15.20185 v 131.82868 l 58.32441,-57.03443 v -74.79425 c 0,-41.829578 -31.69468,-72.244275 -74.81425,-72.244275 H 630.0217 V 19.01681 C 630.0217,8.864912 618.61181,0 607.19193,0 597.05703,0 584.38216,8.864911 584.38216,19.01681 V 68.451316 H 489.31111 V 19.01681 C 489.31111,8.864912 477.91122,0 466.47634,0 456.32944,0 443.67156,8.864911 443.67156,19.01681 V 68.451316 H 348.59751 V 19.01681 C 348.59751,8.864912 337.18563,0 325.77074,0 315.61884,0 302.95597,8.864911 302.95597,19.01681 v 49.434506 l -103.94396,-1e-6 V 19.01681 C 199.01201,8.864912 187.60212,0 176.18524,0 166.03534,0 153.37347,8.864911 153.37347,19.01681 v 49.434506 l -68.452319,-1e-6 C 27.884721,68.451315 0,98.863012 0,140.69559 v 799.822 c 0,41.80958 38.01662,72.24931 81.131189,72.24931 H 709.8409 c 43.09457,0 74.78925,-30.43973 74.78925,-72.24931 V 664.18536 l -58.31441,57.03443 v 220.53679 c 0,10.1599 -6.33994,13.95486 -16.47484,13.95486 M 577.99222,285.22015 H 199.01201 c -10.1499,0 -17.73482,12.66187 -17.73482,21.52978 0,10.1469 7.60492,21.54979 17.73482,21.54979 h 378.98021 c 10.1649,0 17.74982,-12.68188 17.74982,-21.54979 0,-8.86691 -7.59992,-21.52978 -17.74982,-21.52978 v 0 0 z m 0,145.75654 H 199.01201 c -10.1499,0 -17.73482,12.66187 -17.73482,21.54478 0,10.1499 7.60492,21.52979 17.73482,21.52979 h 378.98021 c 10.1649,0 17.74982,-12.67687 17.74982,-21.52979 0,-8.88291 -7.59992,-21.54478 -17.74982,-21.54478 v 0 0 z"
     id="path1058"
     style="fill:#000000;fill-opacity:1" />
</svg>
